<svg width="18" height="104" viewBox="0 0 18 104" fill="none" xmlns="http://www.w3.org/2000/svg" xmlns:xlink="http://www.w3.org/1999/xlink">
<path d="M11.881,3.404C11.754,1.198 9.864,-0.487 7.659,-0.361C5.453,-0.234 3.768,1.656 3.894,3.861L11.881,3.404ZM8.949,99.478C9.089,101.683 10.991,103.356 13.195,103.216C15.4,103.075 17.073,101.174 16.932,98.969L8.949,99.478ZM3.894,3.861C5.71,35.569 6.918,67.664 8.949,99.478L16.932,98.969C14.897,67.079 13.715,35.431 11.881,3.404L3.894,3.861Z" fill="#000000"/>
<path d="M7.478,78.608C6.79,76.508 4.53,75.364 2.431,76.052C0.332,76.739 -0.813,78.999 -0.125,81.098L7.478,78.608ZM6.255,98.542C7.041,100.607 9.352,101.643 11.417,100.856C13.481,100.07 14.517,97.759 13.731,95.694L6.255,98.542ZM-0.125,81.098C1.827,87.056 4.084,92.844 6.255,98.542L13.731,95.694C11.526,89.905 9.355,84.339 7.478,78.608L-0.125,81.098Z" fill="#000000"/>
</svg>
