<svg width="26" height="22" viewBox="0 0 26 22" fill="none" xmlns="http://www.w3.org/2000/svg" xmlns:xlink="http://www.w3.org/1999/xlink">
<path d="M12.467,0.304C7.5,0.495 3.628,4.676 3.819,9.643C4.01,14.61 8.191,18.481 13.158,18.29L12.467,0.304ZM18.654,17.277C23.433,15.912 26.201,10.93 24.835,6.151C23.47,1.372 18.489,-1.396 13.709,-0.031L18.654,17.277ZM13.158,18.29C15.703,18.192 17.678,17.556 18.654,17.277L13.709,-0.031C13.351,0.072 13.157,0.129 12.935,0.19C12.74,0.244 12.629,0.271 12.559,0.287C12.466,0.308 12.469,0.303 12.467,0.304L13.158,18.29Z" fill="#E2E2E2"/>
<path d="M6.292,2.987C1.691,4.867 -0.515,10.121 1.365,14.723C3.245,19.324 8.499,21.53 13.1,19.65L6.292,2.987ZM17.952,17.767C22.816,16.743 25.928,11.97 24.904,7.106C23.88,2.242 19.107,-0.871 14.243,0.153L17.952,17.767ZM13.1,19.65C16.076,18.434 16.764,18.017 17.952,17.767L14.243,0.153C10.939,0.849 7.567,2.466 6.292,2.987L13.1,19.65Z" fill="#E3DFDE"/>
<path d="M8.168,1.502C3.211,1.881 -0.499,6.206 -0.12,11.162C0.259,16.119 4.584,19.829 9.54,19.45L8.168,1.502ZM19.274,17.605C24.048,16.223 26.799,11.232 25.416,6.458C24.034,1.683 19.043,-1.067 14.269,0.315L19.274,17.605ZM9.54,19.45C13.075,19.18 16.236,18.485 19.274,17.605L14.269,0.315C12.031,0.963 10.128,1.353 8.168,1.502L9.54,19.45Z" fill="#E3DFDE"/>
</svg>
