<svg width="26" height="34" viewBox="0 0 26 34" fill="none" xmlns="http://www.w3.org/2000/svg" xmlns:xlink="http://www.w3.org/1999/xlink">
<path d="M21.407,18.532C25.424,15.603 26.306,9.974 23.377,5.957C20.449,1.941 14.819,1.059 10.803,3.987L21.407,18.532ZM0.194,19.327C-1.965,23.805 -0.085,29.184 4.392,31.343C8.869,33.502 14.249,31.622 16.408,27.145L0.194,19.327ZM10.803,3.987C7.399,6.468 5.205,9.572 3.669,12.266C2.276,14.709 0.956,17.747 0.194,19.327L16.408,27.145C17.718,24.427 18.31,22.928 19.305,21.183C20.157,19.689 20.828,18.954 21.407,18.532L10.803,3.987Z" fill="#E5E0DD"/>
<path d="M20.956,17.43C24.364,13.812 24.194,8.116 20.576,4.708C16.958,1.3 11.262,1.47 7.854,5.088L20.956,17.43ZM2.693,14.31C1.007,18.986 3.431,24.143 8.106,25.83C12.782,27.516 17.94,25.093 19.626,20.417L2.693,14.31ZM7.854,5.088C4.715,8.42 3.442,12.235 2.693,14.31L19.626,20.417C20.061,19.211 20.295,18.593 20.543,18.086C20.745,17.674 20.874,17.518 20.956,17.43L7.854,5.088Z" fill="#E5DFDF"/>
<path d="M23.885,14.855C26.895,10.899 26.129,5.253 22.173,2.243C18.218,-0.767 12.571,-0.001 9.561,3.955L23.885,14.855ZM13.495,14.024L5.775,9.398L5.775,9.398L13.495,14.024ZM3.24,14.568C1.227,19.113 3.279,24.429 7.823,26.442C12.368,28.456 17.684,26.404 19.697,21.859L3.24,14.568ZM9.561,3.955C8.415,5.46 7.023,7.314 5.775,9.398L21.215,18.65C21.903,17.502 22.753,16.343 23.885,14.855L9.561,3.955ZM5.775,9.398C4.608,11.346 3.746,13.425 3.24,14.568L19.697,21.859C20.457,20.143 20.769,19.394 21.215,18.65L5.775,9.398Z" fill="#E5DFDF"/>
</svg>
