<svg width="56" height="56" viewBox="0 0 56 56" fill="none" xmlns="http://www.w3.org/2000/svg" xmlns:xlink="http://www.w3.org/1999/xlink">
<path d="M27.999,-0.608C12.561,-0.608 0,11.786 0,27.031C0,42.269 12.561,54.67 27.999,54.67C43.439,54.67 56,42.269 56,27.031C56,11.786 43.439,-0.608 27.999,-0.608ZM27.999,48.512C15.999,48.512 6.238,38.876 6.238,27.031C6.238,15.181 15.999,5.545 27.999,5.545C40.001,5.545 49.762,15.181 49.762,27.031C49.762,38.876 40.001,48.512 27.999,48.512Z" fill="#FFFFFF"/>
<path d="M37.19,32.038C35.402,35.068 32.076,36.948 28.51,36.948C22.974,36.948 18.464,32.497 18.464,27.031C18.464,21.561 22.974,17.108 28.51,17.108C32.076,17.108 35.402,18.995 37.19,22.019L37.421,22.414L44.169,22.414L43.764,21.342C42.59,18.271 40.53,15.66 37.802,13.796C35.068,11.927 31.856,10.936 28.51,10.936C19.522,10.936 12.212,18.158 12.212,27.031C12.212,35.904 19.522,43.12 28.51,43.12C31.856,43.12 35.068,42.132 37.802,40.26C40.53,38.396 42.59,35.786 43.764,32.715L44.169,31.642L37.421,31.642L37.19,32.038Z" fill="#FFFFFF"/>
</svg>
