<svg width="6" height="30" viewBox="0 0 6 30" fill="none" xmlns="http://www.w3.org/2000/svg" xmlns:xlink="http://www.w3.org/1999/xlink">
<path d="M5,2C5,3.657 3.657,5 2,5C0.343,5 -1,3.657 -1,2C-1,0.343 0.343,-1 2,-1C3.657,-1 5,0.343 5,2Z" fill="#687182"/>
<path d="M5,14C5,15.657 3.657,17 2,17C0.343,17 -1,15.657 -1,14C-1,12.343 0.343,11 2,11C3.657,11 5,12.343 5,14Z" fill="#687182"/>
<path d="M5,26C5,27.657 3.657,29 2,29C0.343,29 -1,27.657 -1,26C-1,24.343 0.343,23 2,23C3.657,23 5,24.343 5,26Z" fill="#687182"/>
</svg>
