<svg width="24" height="24" viewBox="0 0 24 24" fill="none" xmlns="http://www.w3.org/2000/svg" xmlns:xlink="http://www.w3.org/1999/xlink">
<path d="M22.196,6.217C21.359,7.054 20.94,7.473 20.501,7.554C20.062,7.635 19.774,7.346 19.197,6.77L17.23,4.803C16.654,4.226 16.365,3.938 16.446,3.499C16.528,3.06 16.946,2.641 17.783,1.804L18.237,1.35C19.074,0.513 19.493,0.094 19.932,0.013C20.371,-0.068 20.659,0.221 21.236,0.797L23.203,2.764C23.779,3.341 24.068,3.629 23.987,4.068C23.906,4.507 23.487,4.926 22.65,5.763L22.196,6.217Z" fill="#4B85FA"/>
<path d="M1.908,23.821C0.908,24.006 0.409,24.098 0.155,23.845C-0.098,23.591 -0.006,23.092 0.179,22.092L0.624,19.68C0.703,19.247 0.743,19.03 0.86,18.82C0.977,18.61 1.158,18.429 1.521,18.066L12.629,6.958C13.466,6.121 13.885,5.702 14.324,5.621C14.763,5.54 15.051,5.829 15.628,6.405L17.595,8.372C18.171,8.949 18.46,9.237 18.379,9.676C18.298,10.115 17.879,10.534 17.042,11.371L5.934,22.479C5.571,22.842 5.39,23.023 5.18,23.14C4.97,23.257 4.753,23.297 4.32,23.376L1.908,23.821Z" fill="#4B85FA"/>
</svg>
