<svg width="30" height="20" viewBox="0 0 30 20" fill="none" xmlns="http://www.w3.org/2000/svg" xmlns:xlink="http://www.w3.org/1999/xlink">
<path d="M14,0C7.333,0 1.64,4.147 -0.667,10C1.64,15.853 7.333,20 14,20C20.666,20 26.36,15.853 28.666,10C26.36,4.147 20.666,0 14,0ZM14,16.667C10.32,16.667 7.333,13.68 7.333,10C7.333,6.32 10.32,3.333 14,3.333C17.68,3.333 20.666,6.32 20.666,10C20.666,13.68 17.68,16.667 14,16.667ZM14,6C11.786,6 10,7.787 10,10C10,12.213 11.786,14 14,14C16.213,14 18,12.213 18,10C18,7.787 16.213,6 14,6Z" fill="#6677A2"/>
</svg>
