<svg width="52" height="44" viewBox="0 0 52 44" fill="none" xmlns="http://www.w3.org/2000/svg" xmlns:xlink="http://www.w3.org/1999/xlink">
<path d="M25.539,0C11.246,0 -0.383,9.669 -0.383,21.56C-0.383,33.447 11.246,43.121 25.539,43.121C39.833,43.121 51.461,33.447 51.461,21.56C51.461,9.669 39.833,0 25.539,0ZM25.539,38.317C14.429,38.317 5.392,30.8 5.392,21.56C5.392,12.317 14.429,4.8 25.539,4.8C36.649,4.8 45.686,12.317 45.686,21.56C45.686,30.8 36.649,38.317 25.539,38.317Z" fill="#FFFFFF"/>
<path d="M34.047,25.466C32.391,27.83 29.312,29.296 26.012,29.296C20.886,29.296 16.711,25.824 16.711,21.561C16.711,17.293 20.886,13.82 26.012,13.82C29.312,13.82 32.391,15.292 34.047,17.651L34.261,17.959L40.509,17.959L40.134,17.123C39.047,14.727 37.139,12.69 34.614,11.236C32.083,9.779 29.109,9.005 26.012,9.005C17.69,9.005 10.923,14.639 10.923,21.561C10.923,28.482 17.69,34.111 26.012,34.111C29.109,34.111 32.083,33.34 34.614,31.88C37.139,30.426 39.047,28.39 40.134,25.994L40.509,25.157L34.261,25.157L34.047,25.466Z" fill="#FFFFFF"/>
</svg>
