<svg width="58" height="44" viewBox="0 0 58 44" fill="none" xmlns="http://www.w3.org/2000/svg" xmlns:xlink="http://www.w3.org/1999/xlink">
<path d="M28.413,0C12.975,0 0.414,9.669 0.414,21.56C0.414,33.447 12.975,43.121 28.413,43.121C43.853,43.121 56.414,33.447 56.414,21.56C56.414,9.669 43.853,0 28.413,0ZM28.413,38.317C16.413,38.317 6.651,30.8 6.651,21.56C6.651,12.317 16.413,4.8 28.413,4.8C40.414,4.8 50.176,12.317 50.176,21.56C50.176,30.8 40.414,38.317 28.413,38.317Z" fill="#FFFFFF"/>
<path d="M37.604,25.466C35.815,27.83 32.489,29.296 28.924,29.296C23.388,29.296 18.878,25.824 18.878,21.561C18.878,17.293 23.388,13.82 28.924,13.82C32.489,13.82 35.815,15.292 37.604,17.651L37.835,17.959L44.583,17.959L44.178,17.123C43.004,14.727 40.943,12.69 38.216,11.236C35.482,9.779 32.27,9.005 28.924,9.005C19.936,9.005 12.626,14.639 12.626,21.561C12.626,28.482 19.936,34.111 28.924,34.111C32.27,34.111 35.482,33.34 38.216,31.88C40.943,30.426 43.004,28.39 44.178,25.994L44.583,25.157L37.835,25.157L37.604,25.466Z" fill="#FFFFFF"/>
</svg>
