<svg width="60" height="60" viewBox="0 0 60 60" fill="none" xmlns="http://www.w3.org/2000/svg" xmlns:xlink="http://www.w3.org/1999/xlink">
<path d="M29.999,0C13.459,0 0,13.452 0,29.997C0,46.535 13.459,59.994 29.999,59.994C46.542,59.994 60,46.535 60,29.997C60,13.452 46.542,0 29.999,0ZM29.999,53.311C17.142,53.311 6.683,42.853 6.683,29.997C6.683,17.136 17.142,6.678 29.999,6.678C42.858,6.678 53.317,17.136 53.317,29.997C53.317,42.853 42.858,53.311 29.999,53.311Z" fill="#FFFFFF"/>
<path d="M39.846,35.431C37.93,38.72 34.366,40.76 30.546,40.76C24.615,40.76 19.783,35.929 19.783,29.997C19.783,24.06 24.615,19.228 30.546,19.228C34.366,19.228 37.93,21.276 39.846,24.558L40.094,24.987L47.324,24.987L46.89,23.823C45.632,20.49 43.424,17.656 40.502,15.633C37.572,13.605 34.131,12.529 30.546,12.529C20.916,12.529 13.084,20.368 13.084,29.997C13.084,39.627 20.916,47.459 30.546,47.459C34.131,47.459 37.572,46.386 40.502,44.355C43.424,42.332 45.632,39.499 46.89,36.166L47.324,35.001L40.094,35.001L39.846,35.431Z" fill="#FFFFFF"/>
</svg>
