<svg width="24" height="26" viewBox="0 0 24 26" fill="none" xmlns="http://www.w3.org/2000/svg" xmlns:xlink="http://www.w3.org/1999/xlink">
<path d="M5.5,3.5L5.5,4.5L1.5,4.5C0.672,4.5 0,5.172 0,6C0,6.828 0.672,7.5 1.5,7.5L3.028,7.5L3.79,21.222C3.908,23.342 5.661,25 7.784,25L16.216,25C18.339,25 20.092,23.342 20.21,21.222L20.972,7.5L22.5,7.5C23.328,7.5 24,6.828 24,6C24,5.172 23.328,4.5 22.5,4.5L18.5,4.5L18.5,3.5C18.5,1.015 16.485,-1 14,-1L10,-1C7.515,-1 5.5,1.015 5.5,3.5ZM10,2C9.172,2 8.5,2.672 8.5,3.5L8.5,4.5L15.5,4.5L15.5,3.5C15.5,2.672 14.828,2 14,2L10,2ZM10.5,11.5C10.5,10.672 9.828,10 9,10C8.172,10 7.5,10.672 7.5,11.5L7.5,20.5C7.5,21.328 8.172,22 9,22C9.828,22 10.5,21.328 10.5,20.5L10.5,11.5ZM16.5,11.5C16.5,10.672 15.828,10 15,10C14.172,10 13.5,10.672 13.5,11.5L13.5,20.5C13.5,21.328 14.172,22 15,22C15.828,22 16.5,21.328 16.5,20.5L16.5,11.5Z" clip-rule="evenodd" fill-rule="evenodd" fill="#DC4067"/>
</svg>
