<svg width="16" height="10" viewBox="0 0 16 10" fill="none" xmlns="http://www.w3.org/2000/svg" xmlns:xlink="http://www.w3.org/1999/xlink">
<path d="M3.061,0.939C2.475,0.354 1.525,0.354 0.939,0.939C0.354,1.525 0.354,2.475 0.939,3.061L3.061,0.939ZM8,8L6.939,9.061C7.525,9.646 8.475,9.646 9.061,9.061L8,8ZM15.061,3.061C15.646,2.475 15.646,1.525 15.061,0.939C14.475,0.354 13.525,0.354 12.939,0.939L15.061,3.061ZM0.939,3.061L6.939,9.061L9.061,6.939L3.061,0.939L0.939,3.061ZM9.061,9.061L15.061,3.061L12.939,0.939L6.939,6.939L9.061,9.061Z" transform="rotate(-180 8 5)" fill="#464F60"/>
</svg>
