<svg width="28" height="28" viewBox="0 0 28 28" fill="none" xmlns="http://www.w3.org/2000/svg" xmlns:xlink="http://www.w3.org/1999/xlink">
<path d="M19.364,21.492C17.332,23.072 14.777,24.013 12.003,24.013C5.374,24.013 0,18.638 0,12.007C0,5.376 5.374,0 12.003,0C18.633,0 24.007,5.376 24.007,12.007C24.007,14.781 23.066,17.336 21.486,19.369L27.56,25.437C28.146,26.023 28.147,26.973 27.561,27.56C26.976,28.146 26.026,28.147 25.439,27.561L19.364,21.492ZM21.006,12.007C21.006,16.98 16.975,21.012 12.003,21.012C7.031,21.012 3.001,16.98 3.001,12.007C3.001,7.033 7.031,3.002 12.003,3.002C16.975,3.002 21.006,7.033 21.006,12.007Z" clip-rule="evenodd" fill-rule="evenodd" fill="#868FA0"/>
</svg>
