<svg width="6" height="30" viewBox="0 0 6 30" fill="none" xmlns="http://www.w3.org/2000/svg" xmlns:xlink="http://www.w3.org/1999/xlink">
<path d="M6,3C6,4.657 4.657,6 3,6C1.343,6 0,4.657 0,3C0,1.343 1.343,0 3,0C4.657,0 6,1.343 6,3Z" fill="#687182"/>
<path d="M6,15C6,16.657 4.657,18 3,18C1.343,18 0,16.657 0,15C0,13.343 1.343,12 3,12C4.657,12 6,13.343 6,15Z" fill="#687182"/>
<path d="M6,27C6,28.657 4.657,30 3,30C1.343,30 0,28.657 0,27C0,25.343 1.343,24 3,24C4.657,24 6,25.343 6,27Z" fill="#687182"/>
</svg>
