<svg width="24" height="24" viewBox="0 0 24 24" fill="none" xmlns="http://www.w3.org/2000/svg" xmlns:xlink="http://www.w3.org/1999/xlink">
<path d="M24,12C24,18.628 18.628,24 12,24C5.372,24 0,18.628 0,12C0,5.372 5.372,0 12,0C18.628,0 24,5.372 24,12ZM9.405,9.315L13.648,9.315L13.648,18.354C13.648,19.229 12.939,19.938 12.064,19.938C11.189,19.938 10.48,19.229 10.48,18.354L10.48,12.125L9.405,12.125C8.629,12.125 8,11.496 8,10.72C8,9.944 8.629,9.315 9.405,9.315ZM10.02,5.865C10.02,5.616 10.064,5.383 10.152,5.167C10.247,4.945 10.375,4.753 10.538,4.591C10.701,4.429 10.89,4.301 11.108,4.207C11.206,4.165 11.308,4.132 11.413,4.109C11.547,4.08 11.686,4.065 11.83,4.065C12.074,4.065 12.304,4.112 12.521,4.207C12.58,4.232 12.637,4.26 12.691,4.29C12.839,4.372 12.972,4.473 13.091,4.591C13.253,4.753 13.382,4.945 13.477,5.167C13.527,5.28 13.564,5.397 13.587,5.518C13.609,5.63 13.62,5.746 13.62,5.865C13.62,5.999 13.606,6.13 13.578,6.256C13.555,6.365 13.521,6.47 13.477,6.573C13.382,6.789 13.253,6.977 13.091,7.139C13.007,7.222 12.917,7.296 12.82,7.361C12.727,7.423 12.627,7.477 12.521,7.523C12.304,7.618 12.074,7.665 11.83,7.665C11.703,7.665 11.58,7.654 11.461,7.631C11.339,7.607 11.221,7.571 11.108,7.523C10.89,7.429 10.701,7.301 10.538,7.139C10.375,6.977 10.247,6.789 10.152,6.573C10.064,6.35 10.02,6.114 10.02,5.865Z" clip-rule="evenodd" fill-rule="evenodd" fill="#4B85FA"/>
</svg>
