<svg width="58" height="50" viewBox="0 0 58 50" fill="none" xmlns="http://www.w3.org/2000/svg" xmlns:xlink="http://www.w3.org/1999/xlink">
<path d="M4,19C1.239,19 -1,21.239 -1,24C-1,26.761 1.239,29 4,29L4,19ZM52,24L55.46,27.61C56.444,26.667 57,25.363 57,24C57,22.637 56.444,21.333 55.46,20.39L52,24ZM35.46,1.224C33.466,-0.687 30.301,-0.62 28.39,1.374C26.479,3.368 26.547,6.533 28.54,8.443L35.46,1.224ZM28.54,39.557C26.547,41.467 26.479,44.633 28.39,46.626C30.301,48.62 33.466,48.687 35.46,46.777L28.54,39.557ZM4,29L52,29L52,19L4,19L4,29ZM55.46,20.39L35.46,1.224L28.54,8.443L48.54,27.61L55.46,20.39ZM48.54,20.39L28.54,39.557L35.46,46.777L55.46,27.61L48.54,20.39Z" fill="#BBE0A3"/>
</svg>
