<svg width="16" height="14" viewBox="0 0 16 14" fill="none" xmlns="http://www.w3.org/2000/svg" xmlns:xlink="http://www.w3.org/1999/xlink">
<path d="M3.354,7.895C3.354,10.104 5.145,11.895 7.354,11.895C9.563,11.895 11.354,10.104 11.354,7.895L3.354,7.895ZM7.668,7.769L8.424,11.697L7.668,7.769ZM10.09,6.448L6.244,5.349L10.09,6.448ZM6.725,7.328L6.974,11.321L6.725,7.328ZM7.605,6.448L4.231,8.595L7.605,6.448ZM1.195,3.977C-0.03,5.816 0.467,8.299 2.305,9.524C4.143,10.75 6.626,10.253 7.852,8.415L1.195,3.977ZM11.354,7.895C11.354,7.093 11.386,6.582 11.421,6.287C11.467,5.888 11.49,6.117 11.277,6.557C11.182,6.754 10.813,7.48 9.927,8.029C9.434,8.334 8.802,8.568 8.072,8.601C7.349,8.633 6.724,8.46 6.247,8.232C5.385,7.822 4.947,7.218 4.815,7.025C4.64,6.771 4.555,6.568 4.524,6.49C4.442,6.282 4.458,6.266 4.466,6.19C4.472,6.134 4.513,5.759 4.805,5.282C5.158,4.708 5.862,4.043 6.913,3.841L8.424,11.697C9.963,11.401 11.023,10.447 11.624,9.466C12.166,8.582 12.35,7.683 12.418,7.064C12.55,5.862 12.366,4.563 11.961,3.542C11.85,3.261 11.676,2.884 11.409,2.495C11.184,2.167 10.648,1.468 9.688,1.01C8.468,0.429 6.972,0.449 5.713,1.229C4.729,1.839 4.264,2.684 4.077,3.069C3.682,3.885 3.544,4.762 3.474,5.364C3.392,6.07 3.354,6.912 3.354,7.895L11.354,7.895ZM6.913,3.841C5.656,4.082 4.933,4.165 4.583,4.18C4.393,4.189 4.469,4.169 4.692,4.207C4.808,4.227 5.075,4.28 5.411,4.427C5.734,4.569 6.321,4.885 6.832,5.536C7.097,5.873 7.323,6.279 7.471,6.746C7.619,7.212 7.667,7.671 7.646,8.094C7.606,8.908 7.318,9.499 7.139,9.802C6.953,10.118 6.764,10.324 6.67,10.42C6.566,10.527 6.486,10.591 6.455,10.615C6.398,10.659 6.405,10.648 6.509,10.587C6.604,10.533 6.74,10.462 6.915,10.38C7.269,10.214 7.699,10.042 8.132,9.902C8.579,9.757 8.929,9.677 9.137,9.647C9.24,9.632 9.235,9.641 9.145,9.638C9.089,9.636 8.735,9.626 8.26,9.428C7.734,9.21 6.907,8.685 6.434,7.626C5.981,6.612 6.135,5.732 6.244,5.349L13.936,7.547C14.152,6.792 14.296,5.613 13.738,4.364C13.161,3.07 12.133,2.374 11.328,2.04C9.989,1.484 8.625,1.64 8.016,1.726C6.486,1.943 4.768,2.55 3.515,3.138C2.898,3.427 2.154,3.823 1.527,4.313C1.259,4.523 0.687,4.995 0.25,5.735C0.017,6.129 -0.3,6.806 -0.344,7.7C-0.393,8.695 -0.086,9.68 0.539,10.475C1.57,11.789 3.005,12.035 3.349,12.094C3.923,12.191 4.484,12.192 4.933,12.173C5.859,12.132 7.026,11.966 8.424,11.697L6.913,3.841ZM6.244,5.349C6.554,4.263 7.241,3.676 7.517,3.47C7.821,3.243 8.061,3.149 8.099,3.134C8.182,3.102 8.12,3.133 7.84,3.183C7.325,3.275 6.717,3.321 6.475,3.336L6.974,11.321C7.286,11.301 8.267,11.234 9.25,11.058C9.718,10.974 10.383,10.832 11.027,10.579C11.346,10.454 11.827,10.237 12.312,9.874C12.769,9.532 13.579,8.797 13.936,7.547L6.244,5.349ZM6.475,3.336C6.517,3.334 6.991,3.294 7.58,3.432C7.859,3.497 8.616,3.7 9.341,4.356C9.74,4.717 10.131,5.22 10.384,5.874C10.638,6.53 10.69,7.175 10.631,7.732C10.524,8.742 10.065,9.418 9.89,9.658C9.674,9.954 9.465,10.153 9.363,10.246C9.156,10.434 8.98,10.551 8.946,10.574C8.858,10.633 8.798,10.665 8.884,10.616C8.924,10.592 9.04,10.526 9.149,10.46C9.305,10.367 9.817,10.064 10.284,9.613C10.503,9.401 11.006,8.883 11.331,8.066C11.509,7.619 11.66,7.016 11.622,6.305C11.584,5.57 11.351,4.883 10.98,4.3L4.231,8.595C3.888,8.056 3.67,7.415 3.633,6.726C3.598,6.062 3.739,5.507 3.898,5.109C4.184,4.389 4.609,3.972 4.724,3.861C4.981,3.612 5.181,3.512 5.038,3.598C4.997,3.622 4.966,3.64 4.877,3.691C4.833,3.717 4.661,3.815 4.492,3.928C4.418,3.978 4.21,4.119 3.98,4.328C3.867,4.431 3.649,4.639 3.427,4.943C3.245,5.192 2.782,5.876 2.675,6.893C2.616,7.453 2.668,8.101 2.923,8.76C3.177,9.417 3.57,9.923 3.972,10.286C4.701,10.947 5.467,11.153 5.757,11.221C6.371,11.365 6.881,11.326 6.974,11.321L6.475,3.336ZM10.98,4.3C10.609,3.717 10.15,3.033 9.619,2.467C9.163,1.979 8.003,0.86 6.17,0.783C4.245,0.702 2.988,1.812 2.49,2.315C1.953,2.858 1.506,3.512 1.195,3.977L7.852,8.415C8.167,7.941 8.241,7.877 8.177,7.942C8.152,7.967 7.321,8.839 5.832,8.776C5.125,8.746 4.586,8.508 4.26,8.31C3.96,8.128 3.8,7.956 3.781,7.936C3.766,7.92 3.891,8.061 4.231,8.595L10.98,4.3Z" fill="#000000"/>
</svg>
